# xmcd
#
# Track frame offsets:
#	150
#	22800
#	45425
#	67962
#	87637
#	110000
#	132172
#	152382
#	171447
#	190015
#	209912
#	229507
#
# Disc length: 3382 seconds
#
# Revision: 3
# Processed by: cddbd v1.5.2PL0 Copyright (c) Steve Scherf et al.
# Submitted via: CDex 1.50Beta5
#
DISCID=9b0d340c
DTITLE=郷ひろみ - GREATEST HITS OF HIROMI GO VOL.2 〜Ballads〜 Disc1
DYEAR=1995
DGENRE=Pop
TTITLE0=なにもかも忘れない
TTITLE1=僕がどんなに君を好きか、君は知らない
TTITLE2=言えないよ
TTITLE3=逢いたくてしかたない
TTITLE4=忘れられないひと
TTITLE5=泣けばいい
TTITLE6=愛のエンプティーペイジ ('95)
TTITLE7=ハリウッド・スキャンダル ('95)
TTITLE8=哀しみの黒い瞳 ('95)
TTITLE9=よろしく哀愁 〜VINGT ANS VERSION〜 
TTITLE10=時をかさねたら ('95)
TTITLE11=哀愁のカサブランカ ('95)
EXTD=
EXTT0=
EXTT1=
EXTT2=
EXTT3=
EXTT4=
EXTT5=
EXTT6=
EXTT7=
EXTT8=
EXTT9=
EXTT10=
EXTT11=
PLAYORDER=
